<svg width="600" height="143" viewBox="0 0 600 143" fill="none" xmlns="http://www.w3.org/2000/svg">
<path fill-rule="evenodd" clip-rule="evenodd" d="M49.716 57.0505C31.2403 51.5854 33.3293 99.1654 54.868 86.1295C61.0841 82.3668 69.2772 76.9587 79.0841 76.9587C87.9313 76.9587 92.772 86.544 101.619 86.544C114.363 85.1569 113.815 60.9643 105.206 60.1813C96.1535 60.1813 88.7351 75.4697 77.0194 71.877C66.904 68.7755 56.5224 59.0635 49.716 57.0505ZM52.2164 49.3806C61.6535 52.1721 69.874 61.203 79.4022 64.1242C80.1779 64.3621 80.8375 64.3679 81.6183 64.1562C83.4421 63.6623 85.5311 62.1238 87.0285 60.9905C92.5559 56.8064 97.6388 52.1549 105.002 52.1549H105.371L105.738 52.1885C124.711 53.9136 124.528 92.7737 102.32 95.1909L101.882 95.2387H101.334C100.632 95.2387 99.9279 95.2179 99.2316 95.1316C93.5185 94.4225 89.6214 91.8369 85.5659 88.9967C83.9513 87.8661 81.1622 85.7224 79.0675 85.7224C71.8124 85.7224 65.2729 89.9999 59.2521 93.6443C53.3263 97.2308 46.4174 98.5298 40.1305 95.0208C32.7121 90.8804 29.5177 81.7989 29.1909 73.6113C28.8514 65.1141 31.5307 55.1329 39.2685 50.6814C43.2868 48.3699 47.8298 48.083 52.2164 49.3806Z" fill="url(#paint0_linear_1656_2)"/>
<path fill-rule="evenodd" clip-rule="evenodd" d="M68.4096 18.1636C-3.89084 13.4266 42.5679 17.8756 26.3813 39.2644C19.4872 48.3816 15.3687 59.8204 15.3687 72.2885C15.3687 102.18 39.1161 126.412 68.4096 126.412C90.0979 126.412 108.744 113.128 116.964 94.1042C122.092 83.9103 125.181 69.106 117.053 50.9857C108.867 32.2844 90.14 19.5888 68.4096 18.1636ZM68.9651 9.34953C102.235 11.5287 130.109 37.2341 130.109 72.2885C130.109 107.056 102.482 135.245 68.4096 135.245C34.3397 135.245 6.71289 107.054 6.71289 72.2885C6.71289 58.3452 11.1778 44.9071 19.5289 33.8664C20.7654 32.2322 21.9139 30.4629 21.1842 28.3858C19.5688 23.794 16.1543 21.3291 18.2042 15.26C20.7354 7.7645 28.9963 7.58083 35.4043 7.61598C46.4633 7.6772 57.9221 8.62617 68.9651 9.34953Z" fill="url(#paint1_linear_1656_2)"/>
<path fill-rule="evenodd" clip-rule="evenodd" d="M405.847 99.5705C395.625 99.5705 386.666 91.1823 386.666 78.0627V77.8478C386.666 64.4045 395.308 56.4472 405.847 56.4472C415.964 56.4472 425.555 65.0498 425.555 77.8478V78.0627C425.555 90.8594 415.964 99.5705 405.847 99.5705ZM451.32 74.8305C452.385 63.8509 459.628 55.6987 469.215 55.6987C480.187 55.6987 485.94 64.6122 486.792 74.8305H451.32ZM470.815 107.938C481.255 107.938 487.965 103.698 493.505 97.3933L488.392 92.7199C483.918 97.5022 478.593 100.654 471.028 100.654C461.228 100.654 452.813 93.8063 451.642 81.6332H495.317C495.423 80.6549 495.423 80.0025 495.423 78.9152C495.423 62.5015 486.048 49.2406 469.751 49.2406C454.517 49.2406 443.333 62.2845 443.333 78.4798V78.6982C443.333 96.089 455.69 107.938 470.815 107.938ZM519.371 106.577H526.621L550.613 49.8872H541.763L523.102 96.5651L504.548 49.8872H495.484L519.371 106.577ZM573.73 107.196C584.703 107.196 593.333 100.999 593.333 90.3448V90.2792C593.333 80.0521 584.065 76.6427 575.443 74.0036C568.007 71.6944 561.111 69.6058 561.111 64.2172V64.0542C561.111 59.4424 565.21 56.0114 571.62 56.0114C576.875 56.0114 582.655 58.0482 587.7 61.373L591.378 55.1521C585.807 51.3996 578.452 49.0399 571.831 49.0399C561.111 49.0399 553.333 55.3679 553.333 64.9121V65.1295C553.333 75.5426 563 78.6105 571.7 81.1323C579.004 83.2134 585.555 85.4066 585.555 91.1047V91.2151C585.555 96.6505 580.761 100.129 574.156 100.129C567.657 100.129 561.052 97.5195 555.086 92.9538L550.932 98.9332C557.11 104.042 565.846 107.196 573.73 107.196ZM404.297 107.004C414.496 107.004 421.046 101.243 425.555 94.5047V105.443H433.333V35.1479H425.555V60.3729C421.26 54.0689 414.604 48.4163 404.297 48.4163C390.983 48.4163 377.777 59.287 377.777 77.6557V77.874C377.777 96.352 390.983 107.004 404.297 107.004Z" fill="url(#paint2_linear_1656_2)"/>
<path fill-rule="evenodd" clip-rule="evenodd" d="M244.271 107.441C240.01 107.441 236.05 106.717 232.393 105.267C228.736 103.818 225.576 101.752 222.912 99.0717C220.248 96.3895 218.172 93.2193 216.681 89.5598C215.19 85.9007 214.444 81.8243 214.444 77.3313V77.1139C214.444 72.9839 215.136 69.071 216.521 65.3747C217.906 61.6788 219.842 58.4533 222.326 55.7012C224.812 52.9469 227.777 50.7724 231.222 49.1779C234.666 47.5848 238.483 46.7872 242.673 46.7872C247.432 46.7872 251.55 47.6562 255.03 49.3963C258.51 51.1346 261.403 53.4721 263.712 56.4072C266.02 59.3422 267.724 62.712 268.825 66.516C269.924 70.32 270.476 74.2882 270.476 78.4185C270.476 79.0704 270.458 79.7587 270.423 80.4837C270.386 81.2078 270.334 81.9696 270.263 82.7668H230.53C231.311 86.5348 232.926 89.3781 235.376 91.299C237.825 93.2193 240.862 94.1799 244.484 94.1799C247.182 94.1799 249.596 93.7087 251.727 92.7662C253.858 91.8243 256.06 90.303 258.332 88.201L267.6 96.5702C264.901 99.9764 261.633 102.64 257.798 104.56C253.964 106.48 249.454 107.441 244.271 107.441ZM254.2 72.5627C253.702 68.8677 252.424 65.8778 250.364 63.5952C248.304 61.3125 245.571 60.1712 242.162 60.1712C238.753 60.1712 236.001 61.2944 233.906 63.5416C231.812 65.7879 230.444 68.7947 229.805 72.5627H254.2ZM275.555 47.6194H292.222V59.1255C293.815 55.2184 295.998 52.0948 298.772 49.7506C301.544 47.4064 305.287 46.3408 310 46.5547V63.4924H309.167C303.901 63.4924 299.758 65.1253 296.744 68.393C293.728 71.6592 292.222 76.7373 292.222 83.6255V105.443H275.555V47.6194ZM343.226 107.626C338.791 107.626 334.68 106.841 330.888 105.273C327.098 103.703 323.826 101.55 321.072 98.8129C318.318 96.0772 316.155 92.8654 314.583 89.1806C313.008 85.4949 312.222 81.5356 312.222 77.303V77.0842C312.222 72.851 313.008 68.8921 314.583 65.2073C316.155 61.5211 318.336 58.2912 321.125 55.5192C323.915 52.7458 327.205 50.5554 330.996 48.9498C334.786 47.3453 338.934 46.5423 343.441 46.5423C347.875 46.5423 351.986 47.3271 355.777 48.8954C359.567 50.4655 362.841 52.6178 365.594 55.3552C368.347 58.091 370.51 61.3027 372.083 64.9876C373.657 68.6733 374.444 72.6327 374.444 76.8653V77.0842C374.444 81.3173 373.657 85.2762 372.083 88.961C370.51 92.6472 368.33 95.8758 365.541 98.6491C362.751 101.422 359.461 103.613 355.67 105.217C351.881 106.823 347.732 107.626 343.226 107.626ZM342.884 93.265C345.242 93.265 347.331 92.8456 349.152 92.0076C350.973 91.1692 352.527 90.0212 353.813 88.5637C355.098 87.1058 356.081 85.4117 356.758 83.4798C357.438 81.548 357.777 79.4899 357.777 77.3025V77.0842C357.777 74.8981 357.421 72.8382 356.705 70.9068C355.992 68.9749 354.955 67.2627 353.598 65.7684C352.241 64.2745 350.634 63.0907 348.777 62.2151C346.92 61.3408 344.885 60.9033 342.67 60.9033C340.313 60.9033 338.223 61.3227 336.403 62.1607C334.581 62.999 333.027 64.147 331.742 65.6046C330.456 67.0625 329.474 68.7566 328.794 70.6885C328.116 72.6203 327.777 74.6784 327.777 76.8658V77.0842C327.777 79.2702 328.134 81.3301 328.848 83.2615C329.563 85.1921 330.6 86.9056 331.956 88.3999C333.314 89.8937 334.902 91.0776 336.724 91.9531C338.545 92.8273 340.598 93.265 342.884 93.265ZM172.222 35.1478V56.6486C173.16 55.3978 174.186 54.2207 175.305 53.0793C176.423 51.9557 177.665 50.9597 179.036 50.0712C180.405 49.2018 181.921 48.5141 183.578 47.9874C185.237 47.4803 187.112 47.2275 189.202 47.2275C195.476 47.2275 200.325 49.1478 203.751 52.9881C207.175 56.8292 208.888 62.1186 208.888 68.8589V106.576H192.222V74.1482C192.222 70.2531 191.366 67.2999 189.655 65.326C187.944 63.333 185.521 62.337 182.382 62.337C179.246 62.337 176.767 63.333 174.95 65.326C173.131 67.2999 172.222 70.2531 172.222 74.1482V105.443H155.555V35.1478H172.222Z" fill="#0D0D0D"/>
<defs>
<linearGradient id="paint0_linear_1656_2" x1="29.1626" y1="74.7131" x2="119.511" y2="73.9137" gradientUnits="userSpaceOnUse">
<stop stop-color="#F926E1"/>
<stop offset="1" stop-color="#2AB5FB"/>
</linearGradient>
<linearGradient id="paint1_linear_1656_2" x1="6.71289" y1="76.3381" x2="130.129" y2="75.7715" gradientUnits="userSpaceOnUse">
<stop stop-color="#F926E1"/>
<stop offset="1" stop-color="#2AB5FB"/>
</linearGradient>
<linearGradient id="paint2_linear_1656_2" x1="377.777" y1="74.3423" x2="593.33" y2="71.3116" gradientUnits="userSpaceOnUse">
<stop stop-color="#F926E1"/>
<stop offset="1" stop-color="#2AB5FB"/>
</linearGradient>
</defs>
</svg>
